<?xml version="1.0" standalone="no"?>
<!DOCTYPE svg PUBLIC "-//W3C//DTD SVG 20010904//EN"
 "http://www.w3.org/TR/2001/REC-SVG-20010904/DTD/svg10.dtd">
<svg version="1.0" xmlns="http://www.w3.org/2000/svg"
 width="850.820712pt" height="240.553426pt" viewBox="0 0 850.820712 240.553426"
 preserveAspectRatio="xMidYMid meet">
<metadata>
Created by potrace 1.12, written by Peter Selinger 2001-2015
</metadata>
<g transform="translate(-26.179288,269.688017) scale(0.100000,-0.100000)"
fill="#000000" stroke="none">
<path d="M2465 2694 c-415 -29 -799 -135 -1169 -321 -439 -220 -780 -525 -935
-837 -141 -282 -131 -544 26 -751 54 -70 161 -156 252 -204 l77 -40 130 211
c71 117 130 214 131 217 2 3 -21 20 -49 36 -29 17 -82 59 -118 95 -111 110
-158 232 -147 385 43 590 987 1195 1865 1195 625 0 991 -320 867 -756 -10 -32
-37 -97 -61 -144 -226 -439 -867 -820 -1522 -905 -68 -9 -140 -15 -161 -13
l-39 3 232 379 c127 208 236 379 240 380 5 0 78 -111 162 -249 84 -137 157
-251 163 -253 16 -5 255 117 360 183 67 43 90 62 86 74 -3 8 -124 208 -267
443 l-262 428 -241 0 -241 0 -521 -853 c-287 -469 -525 -860 -528 -869 -5 -14
4 -20 47 -32 402 -117 896 -91 1397 74 639 209 1159 600 1367 1024 63 131 94
248 94 363 0 110 -14 172 -62 272 -33 69 -56 100 -122 165 -115 114 -242 183
-438 240 -152 44 -442 72 -613 60z"/>
<path d="M3672 1195 c-46 -94 -47 -95 -32 -95 6 0 15 11 20 25 9 23 15 25 68
25 53 0 60 -2 70 -25 6 -14 16 -25 22 -25 15 0 14 2 -32 95 -26 52 -48 85 -58
85 -10 0 -32 -33 -58 -85z m81 20 c9 -20 17 -38 17 -40 0 -3 -18 -5 -40 -5
-22 0 -40 2 -40 5 0 11 34 75 40 75 3 0 14 -16 23 -35z"/>
<path d="M3920 1260 c-14 -14 -20 -33 -20 -68 0 -75 14 -87 105 -87 83 0 95 7
95 58 0 26 -2 27 -50 27 -27 0 -50 -4 -50 -10 0 -5 18 -10 41 -10 33 0 40 -3
37 -17 -3 -15 -16 -19 -72 -21 -49 -2 -72 1 -77 10 -13 20 -11 92 3 106 18 18
137 16 144 -3 8 -19 24 -19 24 0 0 23 -34 35 -99 35 -48 0 -65 -4 -81 -20z"/>
<path d="M4180 1190 l0 -90 75 0 c60 0 75 3 75 15 0 12 -14 15 -65 15 -62 0
-65 1 -65 25 0 23 4 24 63 27 78 4 74 23 -6 23 -56 0 -57 1 -57 28 0 27 1 27
65 27 37 0 65 4 65 10 0 6 -32 10 -75 10 l-75 0 0 -90z"/>
<path d="M4400 1190 c0 -113 18 -119 22 -7 l3 82 69 -82 c38 -46 75 -83 83
-83 10 0 13 21 13 90 0 109 -18 121 -22 16 l-3 -74 -63 74 c-38 45 -71 74 -83
74 -17 0 -19 -8 -19 -90z"/>
<path d="M4686 1264 c-23 -22 -22 -127 1 -145 10 -9 41 -14 85 -14 57 0 72 4
83 19 8 10 12 23 8 29 -4 6 -11 3 -18 -7 -11 -14 -26 -16 -81 -14 l-69 3 -3
48 c-2 27 2 55 9 63 17 21 125 19 137 -2 5 -9 14 -15 21 -13 8 3 7 11 -4 27
-14 19 -25 22 -85 22 -49 0 -73 -4 -84 -16z"/>
<path d="M4940 1189 c0 -57 4 -88 10 -84 6 3 10 44 10 91 0 49 -4 84 -10 84
-6 0 -10 -37 -10 -91z"/>
<path d="M5073 1200 c-24 -44 -43 -85 -43 -90 0 -19 17 -10 28 15 10 22 18 25
66 25 48 0 57 -3 74 -27 11 -16 23 -25 27 -22 9 10 -84 179 -98 179 -7 0 -31
-36 -54 -80z m77 20 c11 -21 20 -42 20 -45 0 -3 -20 -5 -45 -5 l-45 0 22 45
c12 25 23 45 25 45 1 0 12 -18 23 -40z"/>
<path d="M5380 1190 l0 -92 78 3 c100 5 112 14 112 88 0 81 -5 85 -105 90
l-85 3 0 -92z m154 57 c13 -10 17 -24 14 -62 l-3 -50 -72 -3 -73 -3 0 66 0 65
58 0 c32 0 66 -6 76 -13z"/>
<path d="M5650 1190 l0 -90 75 0 c60 0 75 3 75 15 0 12 -14 15 -65 15 -63 0
-65 1 -65 25 0 24 2 25 65 25 51 0 65 3 65 15 0 12 -14 15 -65 15 -63 0 -65 1
-65 25 0 24 2 25 65 25 37 0 65 4 65 10 0 6 -32 10 -75 10 l-75 0 0 -90z"/>
<path d="M5992 1195 c-23 -47 -42 -87 -42 -90 0 -15 18 -2 28 20 10 22 18 25
66 25 48 0 57 -3 74 -27 38 -52 33 -15 -10 71 -26 53 -48 86 -58 86 -10 0 -32
-33 -58 -85z m81 20 c9 -20 17 -38 17 -40 0 -3 -20 -5 -44 -5 l-44 0 21 40
c12 22 25 40 28 40 3 0 13 -16 22 -35z"/>
<path d="M6220 1189 l0 -91 78 3 c101 5 112 14 112 90 0 76 -17 89 -117 89
l-73 0 0 -91z m154 58 c13 -10 17 -24 14 -62 l-3 -50 -72 -3 -73 -3 0 66 0 65
58 0 c32 0 66 -6 76 -13z"/>
<path d="M6490 1212 c0 -96 10 -107 100 -107 59 0 74 3 86 19 16 23 20 156 4
156 -6 0 -10 -26 -10 -59 0 -89 -1 -91 -80 -91 -79 0 -80 2 -80 91 0 33 -4 59
-10 59 -6 0 -10 -29 -10 -68z"/>
<path d="M6793 1197 c-24 -46 -43 -87 -43 -90 0 -16 18 -5 28 18 10 22 18 25
66 25 48 0 57 -3 74 -27 11 -16 23 -25 27 -21 10 10 -83 178 -98 178 -7 0 -31
-38 -54 -83z m77 23 c11 -21 20 -42 20 -45 0 -3 -20 -5 -45 -5 l-45 0 22 45
c12 25 23 45 25 45 1 0 12 -18 23 -40z"/>
<path d="M7020 1190 c0 -113 18 -119 22 -8 l3 83 70 -83 c38 -45 76 -82 82
-82 10 0 13 24 13 90 0 109 -18 121 -22 15 l-3 -74 -60 74 c-42 51 -67 74 -82
75 -22 0 -23 -3 -23 -90z"/>
<path d="M7323 1195 c-24 -46 -43 -87 -43 -90 0 -15 22 -2 32 20 10 23 17 25
70 25 53 0 60 -2 70 -25 10 -23 28 -34 28 -18 0 22 -87 173 -100 173 -9 0 -33
-36 -57 -85z m84 15 l21 -40 -44 0 c-24 0 -44 2 -44 5 0 10 34 75 39 75 3 0
16 -18 28 -40z"/>
<path d="M7566 1264 c-20 -20 -20 -48 0 -65 9 -7 48 -15 87 -18 65 -5 72 -8
75 -28 3 -22 0 -23 -69 -23 -55 0 -75 4 -84 17 -7 9 -14 12 -18 6 -4 -6 0 -18
7 -28 10 -14 30 -20 78 -23 79 -5 108 8 108 47 0 40 -15 48 -92 53 -75 4 -99
18 -78 43 17 21 123 21 144 0 18 -19 26 -19 26 0 0 23 -34 35 -104 35 -45 0
-69 -5 -80 -16z"/>
<path d="M3798 1030 c-93 -9 -136 -32 -163 -85 -18 -36 -20 -60 -20 -230 0
-224 7 -251 76 -286 89 -45 563 -48 649 -4 49 25 70 69 70 148 l0 67 -94 0
-95 0 -3 -32 c-5 -52 -30 -59 -210 -56 -149 3 -159 4 -180 26 -20 19 -23 35
-26 110 -4 104 10 167 41 184 30 18 313 17 345 0 13 -8 22 -22 22 -37 0 -25 1
-25 96 -25 l97 0 -5 68 c-6 82 -20 106 -78 135 -41 20 -62 22 -245 23 -110 1
-235 -1 -277 -6z"/>
<path d="M4670 1031 c-72 -10 -103 -23 -129 -57 -36 -46 -43 -97 -39 -284 5
-261 18 -276 251 -291 154 -11 418 -4 482 13 52 13 92 52 107 103 7 24 12 107
12 210 0 150 -3 175 -21 216 -16 37 -30 51 -69 69 -46 23 -59 24 -294 26 -135
1 -270 -1 -300 -5z m440 -162 c44 -16 60 -58 60 -159 0 -99 -16 -135 -62 -146
-18 -3 -106 -7 -196 -7 -217 0 -216 -1 -220 144 -3 118 8 156 47 165 14 3 31
7 36 9 27 9 306 4 335 -6z"/>
<path d="M6365 1030 c-89 -10 -116 -21 -148 -59 -34 -41 -39 -83 -35 -293 3
-199 9 -215 83 -252 87 -43 549 -43 640 0 46 22 67 63 73 146 l5 68 -97 0
c-90 0 -96 -1 -96 -20 0 -12 -11 -32 -25 -46 -25 -25 -25 -25 -191 -22 -211 4
-204 -1 -204 165 0 106 2 115 24 137 19 20 38 25 107 31 101 8 258 -7 270 -26
5 -8 9 -22 9 -31 0 -16 11 -18 96 -18 l97 0 -7 62 c-8 77 -31 118 -81 143 -35
17 -64 20 -245 21 -113 1 -236 -1 -275 -6z"/>
<path d="M5460 715 l0 -315 325 0 325 0 0 80 0 80 -225 0 -225 0 0 235 0 235
-100 0 -100 0 0 -315z"/>
<path d="M7070 715 l0 -315 350 0 350 0 0 75 0 75 -255 0 -255 0 0 55 0 55
240 0 240 0 0 65 0 65 -240 0 -240 0 0 50 0 50 255 0 255 0 0 70 0 70 -350 0
-350 0 0 -315z"/>
<path d="M7868 993 c17 -21 67 -74 112 -118 45 -44 95 -97 112 -118 l31 -39
-159 -159 -159 -159 136 0 137 0 103 115 c57 63 104 115 104 115 1 0 48 -52
105 -115 l103 -115 129 0 c70 0 128 3 128 8 0 4 -67 75 -150 157 -82 82 -150
153 -150 157 0 5 66 76 146 158 l147 150 -131 0 -131 0 -98 -111 -98 -111 -42
48 c-24 27 -66 77 -95 111 l-53 62 -128 0 -129 1 30 -37z"/>
<path d="M3048 890 c-79 -58 -229 -148 -310 -187 -32 -15 -58 -30 -58 -33 0
-3 51 -89 113 -190 l113 -185 2932 -3 c2926 -2 2932 -2 2932 18 0 20 -8 20
-2637 22 l-2636 3 -184 300 c-101 165 -187 301 -191 302 -4 1 -37 -20 -74 -47z"/>
</g>
</svg>
