<?xml version="1.0" standalone="no"?>
<!DOCTYPE svg PUBLIC "-//W3C//DTD SVG 20010904//EN"
 "http://www.w3.org/TR/2001/REC-SVG-20010904/DTD/svg10.dtd">
<svg version="1.0" xmlns="http://www.w3.org/2000/svg"
 width="200.000000pt" height="200.000000pt" viewBox="0 0 200.000000 200.000000"
 preserveAspectRatio="xMidYMid meet">

<g transform="translate(0.000000,200.000000) scale(0.100000,-0.100000)"
fill="#000000" stroke="none">
<path d="M1342 1620 c165 -28 270 -106 298 -222 24 -97 -28 -223 -138 -332
-112 -111 -221 -178 -384 -235 -125 -43 -318 -77 -318 -55 0 15 213 354 219
349 4 -2 32 -44 61 -92 29 -48 62 -100 72 -116 l19 -27 87 45 c143 75 143 43
1 277 l-124 203 -119 0 -118 0 -244 -399 c-134 -220 -244 -403 -244 -407 0 -4
35 -16 78 -25 100 -24 294 -23 416 0 369 71 707 288 828 533 40 81 43 92 43
167 0 70 -4 88 -30 134 -37 67 -91 117 -169 153 -67 31 -187 60 -244 58 -35
-1 -35 -2 10 -9z"/>
<path d="M753 1531 c-254 -104 -465 -276 -550 -449 -35 -71 -38 -82 -38 -166
0 -71 4 -100 20 -131 25 -51 92 -118 144 -144 l40 -21 34 52 c83 132 92 150
73 160 -69 39 -119 111 -131 188 -24 168 178 401 445 511 41 17 77 33 79 35
14 13 -36 -2 -116 -35z"/>
<path d="M1410 744 c-47 -29 -91 -57 -98 -61 -9 -6 0 -29 36 -88 l48 -80 147
-3 146 -3 -87 142 c-48 79 -92 143 -97 145 -6 1 -48 -22 -95 -52z"/>
</g>
</svg>
